<?xml version="1.0" standalone="no"?>
<!DOCTYPE svg PUBLIC "-//W3C//DTD SVG 20010904//EN"
 "http://www.w3.org/TR/2001/REC-SVG-20010904/DTD/svg10.dtd">
<svg version="1.0" xmlns="http://www.w3.org/2000/svg"
 width="512.000000pt" height="512.000000pt" viewBox="0 0 512.000000 512.000000"
 preserveAspectRatio="xMidYMid meet">
<metadata>
Created by potrace 1.14, written by Peter Selinger 2001-2017
</metadata>
<g transform="translate(0.000000,512.000000) scale(0.100000,-0.100000)"
fill="#000000" stroke="none">
<path d="M2528 5015 c-1 -1 -23 -6 -47 -9 -24 -3 -55 -13 -68 -21 -12 -9 -23
-13 -23 -10 0 8 -83 -46 -101 -67 -9 -10 -20 -18 -25 -18 -5 0 -26 -15 -46
-33 -20 -17 -49 -42 -65 -53 -15 -12 -66 -52 -113 -88 -47 -37 -98 -76 -114
-89 -67 -52 -91 -72 -94 -79 -2 -5 -10 -8 -17 -8 -7 0 -15 -3 -17 -8 -1 -4
-46 -41 -98 -82 -52 -41 -100 -79 -107 -85 -7 -5 -33 -26 -59 -45 -25 -19 -65
-50 -88 -68 -22 -17 -45 -36 -51 -40 -65 -49 -142 -109 -151 -117 -7 -5 -27
-21 -44 -35 -18 -14 -41 -33 -51 -42 -11 -10 -19 -16 -19 -13 0 5 -38 -26 -69
-55 -9 -8 -32 -26 -51 -40 -41 -29 -237 -182 -264 -205 -6 -5 -49 -39 -96 -75
-47 -36 -92 -70 -100 -77 -36 -29 -192 -151 -240 -188 -29 -22 -66 -52 -83
-67 -18 -16 -35 -28 -40 -28 -4 0 -6 -4 -2 -9 3 -6 -2 -14 -11 -19 -9 -5 -15
-11 -14 -13 2 -5 -18 -57 -27 -72 -4 -6 -1 -7 8 -2 11 7 12 6 3 -6 -11 -14
-11 -30 -1 -80 11 -56 52 -104 152 -181 33 -25 70 -54 82 -64 11 -11 31 -26
44 -34 12 -8 33 -25 45 -37 11 -13 25 -23 30 -23 5 0 23 -14 41 -30 18 -17 36
-30 42 -30 5 0 11 -4 13 -8 2 -7 152 -126 278 -222 18 -14 39 -31 46 -37 7 -7
15 -13 19 -13 3 0 16 -10 29 -22 13 -13 33 -30 46 -38 12 -8 33 -24 46 -36 25
-20 25 -20 5 -38 -11 -10 -19 -21 -19 -25 2 -7 -9 -47 -22 -76 -18 -43 -26
-105 -25 -214 l0 -115 -56 -30 c-31 -17 -70 -42 -85 -56 -35 -31 -84 -95 -84
-109 0 -6 -4 -11 -8 -11 -28 0 -65 -255 -42 -285 5 -5 9 -13 9 -18 2 -22 15
-64 24 -74 5 -7 6 -13 1 -13 -4 0 1 -7 12 -15 10 -8 15 -15 11 -15 -8 0 -7 -2
45 -62 l32 -38 1 -432 c1 -238 5 -446 10 -463 11 -42 40 -95 70 -128 82 -91
287 -100 386 -18 42 35 91 125 93 170 0 17 3 31 6 31 7 0 4 716 -3 734 -12 31
14 26 51 -11 41 -40 148 -136 217 -194 22 -19 45 -38 51 -44 6 -5 25 -21 43
-35 19 -14 41 -33 49 -42 9 -10 20 -18 24 -18 5 0 16 -8 26 -18 26 -24 64 -54
147 -114 5 -4 24 -18 40 -31 17 -13 51 -38 77 -55 25 -18 53 -38 60 -44 7 -7
49 -37 93 -67 44 -30 82 -57 85 -60 3 -4 17 -12 33 -20 15 -8 27 -18 27 -23 0
-4 7 -8 15 -8 8 0 15 -5 15 -11 0 -5 5 -7 10 -4 6 3 10 2 10 -3 0 -5 14 -15
30 -22 17 -7 30 -17 30 -22 0 -10 55 18 84 45 11 9 26 17 33 17 7 0 13 5 13
10 0 6 5 10 11 10 6 0 16 6 23 13 8 6 22 18 32 25 63 41 168 115 178 123 10 8
74 56 145 107 51 37 117 87 127 97 7 5 26 21 44 35 18 14 41 34 51 44 11 11
19 17 19 13 0 -4 8 1 18 10 10 10 32 29 48 42 159 131 390 349 469 442 22 27
95 117 110 137 6 7 18 22 27 33 10 10 15 19 12 19 -3 0 4 12 15 26 12 15 21
33 21 40 0 8 4 14 8 14 10 0 48 80 45 92 -2 5 2 8 9 8 6 0 8 3 5 7 -4 3 -3 11
2 17 20 24 30 163 17 241 -10 63 -15 91 -21 115 -3 14 -7 30 -9 37 -1 7 -5 16
-9 19 -4 4 -7 14 -7 21 0 8 -19 62 -41 120 l-42 106 33 28 c18 16 36 29 39 29
3 0 17 10 31 23 14 12 86 70 160 127 74 57 137 108 138 112 2 4 7 8 12 8 5 0
19 9 32 20 27 23 93 75 139 110 18 14 59 45 90 70 31 25 71 56 89 70 18 14 42
33 53 43 11 9 23 17 27 17 13 0 122 113 132 138 27 65 29 115 7 168 -24 58
-40 74 -164 172 -132 104 -212 168 -242 193 -13 10 -23 16 -23 12 0 -3 -14 8
-30 26 -17 17 -35 31 -40 31 -6 0 -10 5 -10 10 0 6 -4 10 -10 10 -10 0 -38 21
-76 58 -13 12 -25 22 -28 22 -3 0 -54 38 -113 86 -142 112 -130 103 -198 154
-33 25 -62 47 -65 50 -3 3 -25 21 -50 40 -25 19 -50 39 -57 45 -23 19 -39 31
-173 135 -74 57 -143 112 -153 122 -10 10 -21 18 -25 18 -4 0 -18 10 -32 23
-14 12 -43 35 -65 52 -22 16 -45 34 -52 40 -6 5 -26 21 -44 35 -18 14 -42 33
-52 43 -10 10 -23 15 -29 11 -7 -4 -8 -3 -4 4 4 7 3 12 -1 12 -5 0 -23 13 -41
29 -17 17 -32 28 -32 25 0 -3 -6 1 -13 8 -8 7 -29 24 -47 38 -44 33 -190 147
-215 168 -96 79 -199 141 -212 128 -4 -3 -11 -2 -17 3 -11 9 -121 23 -128 16z"/>
</g>
</svg>
